<svg width="325" height="135" viewBox="0 0 325 135" fill="none" xmlns="http://www.w3.org/2000/svg">
<path d="M136.573 76.0836C136.1 76.0836 135.635 76.286 135.277 76.636C132.339 79.3135 129.552 80.4522 125.919 80.4522C119.113 80.4522 113.788 74.7558 113.788 67.4839V67.4045C113.788 60.0532 118.993 54.5155 125.919 54.5155C129.375 54.5155 132.146 55.6318 134.986 58.1374C135.42 58.4311 135.869 58.5909 136.282 58.5909C137.384 58.5909 138.346 57.6569 138.346 56.586C138.346 55.7715 137.833 55.2064 137.528 54.9449C135.02 52.8583 131.693 50.7344 125.974 50.7344C116.786 50.7344 109.579 58.0903 109.579 67.4839V67.5873C109.579 77.0804 116.568 84.2402 125.824 84.2402C130.601 84.2402 134.215 82.821 137.861 79.486C138.275 79.1244 138.521 78.576 138.521 78.0351C138.521 76.993 137.607 76.0836 136.573 76.0836Z" fill="#fff"/>
<path d="M153.024 59.1357C146.533 59.1357 141.47 64.6304 141.47 71.6425V71.7414C141.47 78.8691 146.627 84.2407 153.465 84.2407C157.119 84.2407 159.914 83.1244 162.522 80.6205C162.931 80.2693 163.153 79.8123 163.153 79.3145C163.153 78.3615 162.347 77.5855 161.372 77.5855C160.832 77.5855 160.455 77.8401 160.207 78.0551C158.252 79.8606 156.085 80.7303 153.561 80.7303C149.255 80.7303 146.042 77.7125 145.502 73.1974H162.327C163.372 73.1974 164.195 72.3501 164.195 71.3321C164.195 65.273 160.367 59.1357 153.024 59.1357ZM152.912 62.5542C157.717 62.5542 159.822 66.4336 160.188 70.1354H145.502C146.042 65.6627 149.073 62.5542 152.912 62.5542Z" fill="#fff"/>
<path d="M171.752 49.9316C170.691 49.9316 169.791 50.8467 169.791 51.9395V81.9142C169.791 83.0432 170.664 83.9221 171.793 83.9221C172.91 83.9221 173.748 83.0507 173.748 81.9142V51.9395C173.748 50.8341 172.847 49.9316 171.752 49.9316Z" fill="#fff"/>
<path d="M190.427 59.1357C183.945 59.1357 178.881 64.6304 178.881 71.6425V71.7414C178.881 78.8691 184.033 84.2407 190.89 84.2407C194.529 84.2407 197.333 83.1244 199.928 80.6205C200.334 80.2693 200.557 79.8123 200.557 79.3145C200.557 78.3615 199.742 77.5855 198.767 77.5855C198.236 77.5855 197.867 77.8401 197.616 78.0551C195.659 79.8606 193.493 80.7303 190.968 80.7303C186.665 80.7303 183.467 77.7125 182.922 73.1974H199.726C200.758 73.1974 201.598 72.3501 201.598 71.3321C201.596 65.273 197.761 59.1357 190.427 59.1357ZM190.327 62.5542C195.114 62.5542 197.228 66.4336 197.614 70.1354H182.922C183.453 65.6627 186.479 62.5542 190.327 62.5542Z" fill="#fff"/>
<path d="M216.062 69.7857L215.965 69.7547C212.969 68.8516 210.144 67.9814 210.144 65.9373V65.8425C210.144 63.9657 211.937 62.6494 214.486 62.6494C216.383 62.6494 218.474 63.2696 220.546 64.4503C220.702 64.5302 221.022 64.6538 221.418 64.6538C222.402 64.6538 223.207 63.8778 223.207 62.9236C223.207 62.2649 222.834 61.6395 222.228 61.2584C219.818 59.9702 217.039 59.2275 214.593 59.2275C209.707 59.2275 206.314 62.0895 206.314 66.2V66.296C206.314 70.9198 210.92 72.2269 214.283 73.1892C217.54 74.0928 220.005 74.959 220.005 77.1261V77.2094C220.005 79.3253 218.135 80.7319 215.353 80.7319C212.876 80.7319 210.404 79.9047 208.011 78.2757C207.744 78.0647 207.377 77.9452 207.01 77.9452C206.027 77.9452 205.224 78.7252 205.224 79.6754C205.224 80.3663 205.599 80.8911 205.95 81.1463C208.588 83.0306 212.046 84.1601 215.164 84.1601C220.335 84.1601 223.798 81.2176 223.798 76.8496V76.757C223.796 72.4695 219.972 70.9463 216.062 69.7857Z" fill="#fff"/>
<path d="M241.034 63.2031C242.033 63.2031 242.849 62.3995 242.849 61.4171C242.849 60.4589 242.005 59.6398 241.034 59.6398H235.132V54.5354C235.132 53.4502 234.22 52.5322 233.13 52.5322C232.001 52.5322 231.159 53.4025 231.159 54.5354V59.6398H229.471C228.507 59.6398 227.701 60.4589 227.701 61.4171C227.701 62.3592 228.524 63.2031 229.471 63.2031H231.159V77.2084C231.159 81.6568 233.616 84.0946 238.053 84.0946C239.397 84.0946 240.503 83.9078 241.611 83.4463C242.297 83.1795 242.752 82.5662 242.752 81.8713C242.752 80.9366 241.968 80.1347 241.033 80.1347C240.899 80.1347 240.767 80.1733 240.582 80.2215C240.224 80.317 239.671 80.4515 238.875 80.4515C236.358 80.4515 235.131 79.2513 235.131 76.7537V63.2019L241.034 63.2031Z" fill="#fff"/>
<path d="M250.894 59.4121C249.826 59.4121 248.931 60.3312 248.931 61.4159V81.9137C248.931 83.0427 249.826 83.9216 250.935 83.9216C252.071 83.9216 252.913 83.0501 252.913 81.9137V61.4159C252.914 60.2996 252.016 59.4121 250.894 59.4121Z" fill="#fff"/>
<path d="M278.118 77.3127C277.682 77.3127 277.316 77.4816 276.964 77.8237C274.958 79.7263 272.852 80.6477 270.54 80.6477C265.802 80.6477 262.089 76.6993 262.089 71.6812V71.6019C262.089 66.6091 265.698 62.6808 270.318 62.6808C273.195 62.6808 275.116 64.0914 276.602 65.4795C276.964 65.7624 277.428 65.9365 277.895 65.9365C278.957 65.9365 279.802 65.0783 279.802 64.0166C279.802 63.3677 279.471 62.8561 279.192 62.6089C276.579 60.2511 273.774 59.1348 270.373 59.1348C263.559 59.1348 258.037 64.7633 258.037 71.6806V71.7807C258.037 78.6548 263.558 84.2391 270.373 84.2391C273.913 84.2391 276.797 83.0188 279.418 80.3873C279.744 80.0654 279.955 79.5883 279.955 79.1245C279.956 78.1548 279.106 77.3127 278.118 77.3127Z" fill="#fff"/>
<path d="M303.507 61.9935C301.737 60.2168 299.134 59.3184 295.731 59.3184C292.92 59.3184 290.512 59.819 287.924 60.9238C287.37 61.1514 286.825 61.7992 286.825 62.6023C286.825 63.5398 287.646 64.3428 288.608 64.3428C288.829 64.3428 289.073 64.2761 289.329 64.1887C291.297 63.2938 293.264 62.8759 295.357 62.8759C299.751 62.8759 302.168 65.086 302.168 69.0821V69.5989C300.362 69.1137 298.241 68.6763 295.137 68.6763C288.678 68.6763 284.822 71.6067 284.822 76.5237V76.6271C284.822 81.5929 289.362 84.1899 293.861 84.1899C298.022 84.1899 300.643 82.3126 302.168 80.5474V82.058C302.168 83.1237 302.985 83.9226 304.079 83.9226C305.176 83.9226 306 83.0748 306 81.9585V69.0333C305.999 66.0172 305.161 63.6352 303.507 61.9935ZM294.542 80.9538C291.779 80.9538 288.83 79.5661 288.83 76.492V76.3978C288.83 73.4789 291.328 71.7337 295.5 71.7337C297.746 71.7337 299.968 72.0396 302.216 72.6759V74.7906C302.214 78.3131 298.915 80.9538 294.542 80.9538Z" fill="#fff"/>
<path d="M250.982 49.9199C249.737 49.9199 248.713 50.9408 248.713 52.183C248.713 53.4223 249.737 54.4362 250.982 54.4362C252.206 54.4362 253.224 53.4223 253.224 52.183C253.224 50.9408 252.206 49.9199 250.982 49.9199Z" fill="#fff"/>
<path d="M72.6965 48.466C72.6965 51.1774 70.5065 53.3795 67.779 53.3795C65.0561 53.3795 62.8534 51.1774 62.8534 48.466C62.8534 45.7379 65.0561 43.5283 67.779 43.5283C70.5065 43.5283 72.6965 45.7385 72.6965 48.466Z" fill="#D50032"/>
<path d="M72.6965 86.4488C72.6965 83.7334 70.5065 81.5244 67.779 81.5244C65.0561 81.5244 62.8534 83.7346 62.8534 86.4488C62.8534 89.1798 65.0561 91.3738 67.779 91.3738C70.5065 91.3738 72.6965 89.1798 72.6965 86.4488Z" fill="#D50032"/>
<path d="M48.7774 62.5273C51.5037 62.5273 53.7139 64.7335 53.7139 67.4454C53.7139 70.1839 51.5037 72.3831 48.7774 72.3831C46.062 72.3831 43.8518 70.1839 43.8518 67.4454C43.8518 64.7335 46.062 62.5273 48.7774 62.5273Z" fill="#D50032"/>
<path d="M57.8336 50.5455C59.7575 52.4694 59.7575 55.5866 57.8336 57.4985C55.9011 59.4224 52.7839 59.4224 50.864 57.4985C48.9447 55.5861 48.9447 52.4694 50.864 50.5455C52.7839 48.6124 55.9011 48.6124 57.8336 50.5455Z" fill="#D50032"/>
<path d="M84.6958 77.4033C82.7638 75.4788 79.6599 75.4788 77.7423 77.4033C75.8115 79.3312 75.8115 82.4531 77.7423 84.3741C79.6599 86.302 82.7638 86.302 84.6958 84.3741C86.6312 82.4531 86.6312 79.3318 84.6958 77.4033Z" fill="#D50032"/>
<path d="M50.8634 77.4033C52.7832 75.4788 55.901 75.4788 57.833 77.4033C59.7569 79.3312 59.7569 82.4531 57.833 84.3741C55.9004 86.302 52.7832 86.302 50.8634 84.3741C48.9446 82.4531 48.9446 79.3318 50.8634 77.4033Z" fill="#D50032"/>
<path d="M77.7423 50.5455C75.8115 52.4694 75.8115 55.5866 77.7423 57.4985C79.6599 59.4224 82.7638 59.4224 84.6958 57.4985C86.6312 55.5861 86.6312 52.4694 84.6958 50.5455C82.7638 48.6124 79.6599 48.6124 77.7423 50.5455Z" fill="#D50032"/>
<path d="M71.955 35.9581C71.955 38.2488 70.0771 40.1244 67.779 40.1244C65.4786 40.1244 63.6213 38.2488 63.6213 35.9581C63.6213 33.6445 65.4786 31.7764 67.779 31.7764C70.0776 31.7764 71.955 33.6445 71.955 35.9581Z" fill="#D50032"/>
<path d="M71.955 98.9577C71.955 96.6642 70.0771 94.7949 67.779 94.7949C65.4786 94.7949 63.6213 96.6642 63.6213 98.9577C63.6213 101.264 65.4786 103.125 67.779 103.125C70.0776 103.125 71.955 101.264 71.955 98.9577Z" fill="#D50032"/>
<path d="M36.2769 63.2949C38.5676 63.2949 40.4426 65.155 40.4426 67.4457C40.4426 69.7558 38.5676 71.6079 36.2769 71.6079C33.9794 71.6079 32.1027 69.7558 32.1027 67.4457C32.1032 65.155 33.9794 63.2949 36.2769 63.2949Z" fill="#D50032"/>
<path d="M48.4423 42.2247C50.0817 43.8617 50.0817 46.4978 48.4423 48.1251C46.834 49.7421 44.1806 49.7421 42.5585 48.1251C40.9203 46.4978 40.9203 43.8617 42.5585 42.2247C44.1806 40.61 46.834 40.61 48.4423 42.2247Z" fill="#D50032"/>
<path d="M93.0214 86.789C91.3826 85.1589 88.7425 85.1589 87.1209 86.789C85.4994 88.4117 85.4994 91.0553 87.1209 92.6723C88.7425 94.3122 91.3826 94.3122 93.0214 92.6723C94.6315 91.0553 94.6315 88.4129 93.0214 86.789Z" fill="#D50032"/>
<path d="M42.5585 86.789C44.1806 85.1589 46.834 85.1589 48.4423 86.789C50.0817 88.4117 50.0817 91.0553 48.4423 92.6723C46.834 94.3122 44.1806 94.3122 42.5585 92.6723C40.9203 91.0553 40.9203 88.4129 42.5585 86.789Z" fill="#D50032"/>
<path d="M87.1209 42.2247C85.4994 43.8617 85.4994 46.4978 87.1209 48.1251C88.7425 49.7421 91.3826 49.7421 93.0214 48.1251C94.6315 46.4978 94.6315 43.8617 93.0214 42.2247C91.3826 40.61 88.7425 40.61 87.1209 42.2247Z" fill="#D50032"/>
<path d="M60.5519 40.364C61.3112 42.2316 60.4174 44.3871 58.5452 45.1585C56.6771 45.9455 54.5365 45.0505 53.7421 43.1743C52.9678 41.2941 53.8576 39.1512 55.7396 38.3758C57.6146 37.5894 59.7736 38.4953 60.5519 40.364Z" fill="#D50032"/>
<path d="M81.8257 91.7282C81.044 89.8658 78.9074 88.9766 77.0071 89.752C75.147 90.5223 74.2451 92.6732 75.0234 94.558C75.7942 96.4262 77.9544 97.3212 79.8375 96.5417C81.6947 95.7674 82.5891 93.609 81.8257 91.7282Z" fill="#D50032"/>
<path d="M40.6748 74.7049C42.5585 73.9128 44.7106 74.8279 45.4975 76.6926C46.2712 78.5693 45.3728 80.7151 43.5092 81.483C41.6129 82.259 39.4666 81.3715 38.6946 79.4988C37.9238 77.622 38.8176 75.4791 40.6748 74.7049Z" fill="#D50032"/>
<path d="M43.5087 53.4034C45.3722 54.1937 46.2706 56.3418 45.4969 58.2261C44.71 60.0942 42.5579 60.9926 40.6743 60.2172C38.8176 59.4337 37.9232 57.2834 38.694 55.4066C39.4666 53.5298 41.6129 52.6487 43.5087 53.4034Z" fill="#D50032"/>
<path d="M53.742 91.7282C54.5364 89.8658 56.677 88.9766 58.5452 89.752C60.4174 90.5223 61.3112 92.6732 60.5519 94.558C59.7736 96.4262 57.6146 97.3212 55.7389 96.5417C53.857 95.7674 52.9678 93.609 53.742 91.7282Z" fill="#D50032"/>
<path d="M75.0234 40.364C74.2451 42.2316 75.147 44.3871 77.0071 45.1585C78.908 45.9455 81.044 45.0505 81.8257 43.1743C82.5891 41.2941 81.6947 39.1512 79.838 38.3758C77.9538 37.5894 75.7942 38.4953 75.0234 40.364Z" fill="#D50032"/>
<path d="M70.7331 24.9697C70.7331 26.847 69.2236 28.3651 67.3468 28.3651C65.4615 28.3651 63.9238 26.847 63.9238 24.9697C63.9238 23.0808 65.4615 21.5547 67.3468 21.5547C69.2236 21.5547 70.7331 23.0808 70.7331 24.9697Z" fill="#97999B"/>
<path d="M69.9886 15.4952C69.9886 16.9547 68.7971 18.1302 67.3468 18.1302C65.8799 18.1302 64.6952 16.9547 64.6952 15.4952C64.6952 14.0323 65.8799 12.8477 67.3468 12.8477C68.7971 12.8477 69.9886 14.0323 69.9886 15.4952Z" fill="#97999B"/>
<path d="M69.2236 7.53634C69.2236 8.58653 68.401 9.43323 67.3468 9.43323C66.3012 9.43323 65.4614 8.58653 65.4614 7.53634C65.4614 6.50685 66.3007 5.66016 67.3468 5.66016C68.4016 5.66016 69.2236 6.50685 69.2236 7.53634Z" fill="#97999B"/>
<path d="M68.4718 1.12088C68.4718 1.73248 67.9591 2.23429 67.3469 2.23429C66.7135 2.23429 66.2134 1.73306 66.2134 1.12088C66.2134 0.480542 66.7135 0 67.3469 0C67.9597 0 68.4718 0.479967 68.4718 1.12088Z" fill="#97999B"/>
<path d="M71.0009 109.963C71.0009 108.08 69.4737 106.545 67.5888 106.545C65.7052 106.545 64.1865 108.08 64.1865 109.963C64.1865 111.828 65.7052 113.364 67.5888 113.364C69.4737 113.364 71.0009 111.828 71.0009 109.963Z" fill="#97999B"/>
<path d="M70.2462 119.42C70.2462 117.949 69.0638 116.785 67.5888 116.785C66.1345 116.785 64.9498 117.949 64.9498 119.42C64.9498 120.884 66.1345 122.064 67.5888 122.064C69.0638 122.064 70.2462 120.884 70.2462 119.42Z" fill="#97999B"/>
<path d="M69.4817 127.363C69.4817 126.319 68.6471 125.486 67.5889 125.486C66.5473 125.486 65.7052 126.318 65.7052 127.363C65.7052 128.409 66.5479 129.259 67.5889 129.259C68.6471 129.259 69.4817 128.41 69.4817 127.363Z" fill="#97999B"/>
<path d="M68.7172 133.796C68.7172 133.169 68.2206 132.668 67.5889 132.668C66.9767 132.668 66.4674 133.169 66.4674 133.796C66.4674 134.421 66.9767 134.917 67.5889 134.917C68.2206 134.917 68.7172 134.421 68.7172 133.796Z" fill="#97999B"/>
<path d="M39.7276 35.0873C41.0652 36.4192 41.0652 38.5787 39.7276 39.8979C38.4079 41.2413 36.2494 41.2413 34.9268 39.9066C33.5978 38.5787 33.5978 36.4192 34.9268 35.0873C36.2494 33.7561 38.4079 33.7561 39.7276 35.0873Z" fill="#97999B"/>
<path d="M32.5005 28.9324C33.5421 29.9596 33.5421 31.6334 32.5005 32.6732C31.4756 33.6999 29.7897 33.6999 28.7723 32.6819C27.7296 31.6334 27.7296 29.9555 28.7723 28.9289C29.7897 27.8994 31.4756 27.8994 32.5005 28.9324Z" fill="#97999B"/>
<path d="M26.3426 23.8493C27.0852 24.5885 27.0778 25.7732 26.3426 26.5084C25.6074 27.2557 24.4267 27.2557 23.6801 26.5084C22.9449 25.7732 22.9449 24.5724 23.6801 23.8493C24.4152 23.1101 25.62 23.1101 26.3426 23.8493Z" fill="#97999B"/>
<path d="M100.016 95.0072C98.6942 93.676 96.5283 93.676 95.2034 95.0072C93.8514 96.331 93.875 98.4969 95.2034 99.8224C96.5283 101.156 98.6868 101.156 99.9979 99.8224C101.341 98.4975 101.341 96.331 100.016 95.0072Z" fill="#97999B"/>
<path d="M106.171 102.234C105.138 101.206 103.464 101.206 102.423 102.234C101.404 103.255 101.404 104.946 102.423 105.975C103.464 107.01 105.138 107.01 106.171 105.975C107.205 104.945 107.205 103.286 106.171 102.234Z" fill="#97999B"/>
<path d="M24.9722 64.1738C26.8392 64.1738 28.386 65.7034 28.386 67.5882C28.386 69.4644 26.8392 70.9917 24.9722 70.9917C23.0822 70.9917 21.5687 69.4644 21.5687 67.5882C21.5687 65.7034 23.0822 64.1738 24.9722 64.1738Z" fill="#97999B"/>
<path d="M15.5096 64.9326C16.9558 64.9326 18.1405 66.1173 18.1405 67.5883C18.1405 69.0345 16.9558 70.2243 15.5096 70.2243C14.0472 70.2243 12.8528 69.0345 12.8528 67.5883C12.8528 66.1173 14.0472 64.9326 15.5096 64.9326Z" fill="#97999B"/>
<path d="M7.55013 65.7031C8.60031 65.7031 9.43551 66.5383 9.43551 67.5879C9.43551 68.6214 8.60031 69.4641 7.55013 69.4641C6.52409 69.4641 5.66187 68.622 5.66187 67.5879C5.66187 66.5377 6.52409 65.7031 7.55013 65.7031Z" fill="#97999B"/>
<path d="M1.12146 66.4541C1.73881 66.4541 2.25499 66.9519 2.25499 67.5882C2.25499 68.209 1.73881 68.7091 1.12146 68.7091C0.488019 68.7091 0 68.209 0 67.5882C0.000574813 66.9519 0.488593 66.4541 1.12146 66.4541Z" fill="#97999B"/>
<path d="M35.1022 95.1894C36.4208 93.8599 38.5907 93.8599 39.907 95.1825C41.2481 96.5218 41.2481 98.6843 39.907 100.006C38.5792 101.334 36.4208 101.334 35.1022 100.006C33.7692 98.6682 33.7692 96.5218 35.1022 95.1894Z" fill="#97999B"/>
<path d="M28.947 102.415C29.9719 101.384 31.6417 101.384 32.6752 102.415C33.7093 103.448 33.7093 105.13 32.6752 106.155C31.6417 107.189 29.9644 107.189 28.9298 106.164C27.9003 105.13 27.9003 103.448 28.947 102.415Z" fill="#97999B"/>
<path d="M23.8341 108.574C24.602 107.832 25.7729 107.832 26.5208 108.572C27.245 109.315 27.245 110.499 26.5208 111.241C25.7729 111.976 24.602 111.98 23.8341 111.241C23.1185 110.504 23.1185 109.315 23.8341 108.574Z" fill="#97999B"/>
<path d="M19.8505 113.658C20.2828 113.22 21.0048 113.22 21.4324 113.658C21.886 114.12 21.8693 114.822 21.4451 115.248C21.0042 115.692 20.2828 115.692 19.8505 115.248C19.4022 114.814 19.4022 114.119 19.8505 113.658Z" fill="#97999B"/>
<path d="M95.0287 34.9089C93.6859 36.2367 93.6859 38.3911 95.0207 39.7183C96.3439 41.0554 98.4989 41.0554 99.8227 39.7183C101.167 38.3911 101.167 36.2367 99.8227 34.9129C98.4989 33.5805 96.3531 33.5805 95.0287 34.9089Z" fill="#97999B"/>
<path d="M56.0522 31.2699C56.6845 32.8241 55.9401 34.6055 54.3783 35.2366C52.8114 35.8689 51.0278 35.1223 50.3989 33.5628C49.7672 31.997 50.5219 30.2162 52.0762 29.5834C53.6357 28.9401 55.4113 29.7 56.0522 31.2699Z" fill="#97999B"/>
<path d="M52.2291 23.6561C52.7131 24.865 52.1314 26.2486 50.9168 26.7492C49.7155 27.2298 48.3285 26.6538 47.8301 25.445C47.3375 24.2287 47.9382 22.8537 49.1269 22.3519C50.3639 21.8593 51.7388 22.441 52.2291 23.6561Z" fill="#97999B"/>
<path d="M84.9313 101.769C84.2898 100.201 82.5182 99.4511 80.9507 100.084C79.397 100.715 78.625 102.508 79.2774 104.062C79.9178 105.609 81.6859 106.38 83.2534 105.728C84.8066 105.096 85.559 103.324 84.9313 101.769Z" fill="#97999B"/>
<path d="M87.4819 109.881C86.9979 108.662 85.6138 108.085 84.394 108.57C83.1737 109.066 82.5891 110.448 83.0857 111.658C83.587 112.874 84.9694 113.466 86.1834 112.975C87.3848 112.474 87.9843 111.091 87.4819 109.881Z" fill="#97999B"/>
<path d="M89.542 116.737C89.1885 115.882 88.2073 115.457 87.3319 115.817C86.4811 116.152 86.0604 117.144 86.4099 118.011C86.7639 118.875 87.7457 119.284 88.612 118.934C89.4707 118.591 89.8915 117.608 89.542 116.737Z" fill="#97999B"/>
<path d="M91.0727 122.339C90.8617 121.814 90.2858 121.574 89.7805 121.781C89.2304 121.987 88.9861 122.582 89.2155 123.091C89.419 123.618 90.003 123.848 90.5243 123.649C91.0284 123.438 91.2905 122.847 91.0727 122.339Z" fill="#97999B"/>
<path d="M33.7138 50.1422C35.2675 50.7906 36.0021 52.5795 35.3468 54.1378C34.6795 55.684 32.8826 56.4198 31.3318 55.7599C29.7815 55.1006 29.0624 53.302 29.7102 51.7569C30.3782 50.2055 32.1549 49.4858 33.7138 50.1422Z" fill="#97999B"/>
<path d="M25.6435 47.4542C26.8391 47.9675 27.4122 49.3464 26.8954 50.5673C26.3792 51.7721 25.0037 52.3314 23.7868 51.836C22.5815 51.3192 22.0147 49.9201 22.5303 48.7234C23.0321 47.518 24.4272 46.9529 25.6435 47.4542Z" fill="#97999B"/>
<path d="M18.805 45.3154C19.6632 45.674 20.0569 46.6668 19.6919 47.5221C19.3286 48.3762 18.3394 48.7947 17.4714 48.4044C16.6218 48.0584 16.2166 47.0812 16.5868 46.2138C16.9558 45.3476 17.9577 44.9498 18.805 45.3154Z" fill="#97999B"/>
<path d="M13.2275 43.6934C13.7362 43.9159 13.9828 44.5096 13.7638 45.0103C13.5534 45.5305 12.9407 45.7691 12.4486 45.5587C11.9434 45.3391 11.6973 44.7436 11.9152 44.2355C12.1302 43.7135 12.7153 43.479 13.2275 43.6934Z" fill="#97999B"/>
<path d="M31.2594 79.2655C32.8182 78.6332 34.6071 79.3828 35.2353 80.9353C35.8642 82.5109 35.1284 84.2876 33.5649 84.9268C31.9945 85.5557 30.2184 84.7992 29.5901 83.2449C28.9469 81.6803 29.7102 79.9024 31.2594 79.2655Z" fill="#97999B"/>
<path d="M23.6546 83.099C24.86 82.6052 26.247 83.1852 26.7448 84.3952C27.2363 85.6063 26.6522 87.002 25.44 87.4831C24.2386 87.9734 22.8401 87.3882 22.3348 86.1765C21.8698 84.9665 22.4423 83.5801 23.6546 83.099Z" fill="#97999B"/>
<path d="M17.3064 86.4066C18.1807 86.0548 19.1636 86.4692 19.5085 87.3286C19.8677 88.1954 19.4527 89.1772 18.5675 89.5405C17.7122 89.8825 16.7293 89.4726 16.3953 88.6093C16.0257 87.7378 16.447 86.752 17.3064 86.4066Z" fill="#97999B"/>
<path d="M50.1368 101.594C50.7961 100.051 52.5815 99.3294 54.1324 99.9904C55.6947 100.641 56.4011 102.437 55.7596 103.984C55.0877 105.538 53.3098 106.273 51.7595 105.61C50.207 104.945 49.4677 103.163 50.1368 101.594Z" fill="#97999B"/>
<path d="M47.4525 109.687C47.9687 108.476 49.3517 107.91 50.5588 108.439C51.7785 108.936 52.3263 110.331 51.8303 111.54C51.3083 112.728 49.9259 113.313 48.7177 112.8C47.5163 112.288 46.9472 110.892 47.4525 109.687Z" fill="#97999B"/>
<path d="M45.3096 116.518C45.6717 115.655 46.6656 115.252 47.5324 115.622C48.3917 115.985 48.7832 116.972 48.4182 117.83C48.0687 118.694 47.0668 119.102 46.2161 118.731C45.3504 118.363 44.9365 117.377 45.3096 116.518Z" fill="#97999B"/>
<path d="M43.6994 122.091C43.9029 121.587 44.5076 121.34 45.0152 121.553C45.5411 121.781 45.7716 122.365 45.5521 122.877C45.3267 123.392 44.745 123.626 44.2375 123.412C43.7196 123.205 43.4804 122.616 43.6994 122.091Z" fill="#97999B"/>
<path d="M79.5713 31.3409C78.9073 32.8906 79.627 34.6881 81.1859 35.3405C82.7322 36.005 84.5457 35.2606 85.2016 33.7138C85.854 32.1595 85.1142 30.3747 83.5547 29.7142C82.0039 29.0549 80.2156 29.7866 79.5713 31.3409Z" fill="#97999B"/>
<path d="M83.4829 23.7913C82.9834 24.9973 83.5427 26.3924 84.7549 26.893C85.9471 27.4058 87.3399 26.8453 87.8561 25.6325C88.3659 24.4282 87.8078 23.0366 86.6041 22.5273C85.3838 22.0106 84.0077 22.5831 83.4829 23.7913Z" fill="#97999B"/>
<path d="M86.8852 17.483C86.5242 18.3527 86.9174 19.3431 87.8072 19.7007C88.6476 20.0542 89.6374 19.661 90.0024 18.7982C90.3731 17.944 89.9639 16.9536 89.1086 16.588C88.2412 16.2219 87.26 16.6277 86.8852 17.483Z" fill="#97999B"/>
<path d="M89.7805 12.4456C89.5414 12.9698 89.7805 13.5424 90.2933 13.774C90.8135 13.9844 91.4061 13.7464 91.6182 13.2417C91.8401 12.7158 91.6015 12.1203 91.0727 11.9013C90.5554 11.6903 89.98 11.9329 89.7805 12.4456Z" fill="#97999B"/>
<path d="M312.284 61.1958V60.1816H317.062V61.1958H315.281V65.9998H314.065V61.1958H312.284Z" fill="#fff"/>
<path d="M317.849 60.1816H319.366L320.969 64.0907H321.037L322.639 60.1816H324.156V65.9998H322.963V62.2129H322.915L321.409 65.9714H320.597L319.091 62.1987H319.043V65.9998H317.849V60.1816Z" fill="#fff"/>
</svg>
